<mxfile host="Electron" modified="2024-06-08T15:04:10.574Z" agent="Mozilla/5.0 (Windows NT 10.0; Win64; x64) AppleWebKit/537.36 (KHTML, like Gecko) draw.io/24.5.1 Chrome/124.0.6367.207 Electron/30.0.6 Safari/537.36" etag="XmQ5a0mT6piRbATAeQQD" version="24.5.1" type="device">
  <diagram name="Page-1" id="g6hyBrb_P7ojFzYNNV8F">
    <mxGraphModel dx="9651" dy="5389" grid="1" gridSize="10" guides="1" tooltips="1" connect="1" arrows="1" fold="1" page="1" pageScale="1" pageWidth="827" pageHeight="1169" math="0" shadow="0">
      <root>
        <mxCell id="0" />
        <mxCell id="1" parent="0" />
        <mxCell id="15Ui1ueJbvAooOtmS-sP-7" style="edgeStyle=orthogonalEdgeStyle;rounded=0;orthogonalLoop=1;jettySize=auto;html=1;exitX=0.5;exitY=1;exitDx=0;exitDy=0;entryX=0.5;entryY=0;entryDx=0;entryDy=0;" parent="1" source="15Ui1ueJbvAooOtmS-sP-2" target="15Ui1ueJbvAooOtmS-sP-6" edge="1">
          <mxGeometry relative="1" as="geometry" />
        </mxCell>
        <mxCell id="15Ui1ueJbvAooOtmS-sP-46" style="edgeStyle=orthogonalEdgeStyle;rounded=0;orthogonalLoop=1;jettySize=auto;html=1;exitX=0.5;exitY=1;exitDx=0;exitDy=0;entryX=0.5;entryY=0;entryDx=0;entryDy=0;" parent="1" source="15Ui1ueJbvAooOtmS-sP-2" target="15Ui1ueJbvAooOtmS-sP-45" edge="1">
          <mxGeometry relative="1" as="geometry" />
        </mxCell>
        <mxCell id="15Ui1ueJbvAooOtmS-sP-2" value="PlayerController" style="rounded=0;whiteSpace=wrap;html=1;" parent="1" vertex="1">
          <mxGeometry x="-320" y="-230" width="190" height="40" as="geometry" />
        </mxCell>
        <mxCell id="15Ui1ueJbvAooOtmS-sP-17" style="edgeStyle=orthogonalEdgeStyle;rounded=0;orthogonalLoop=1;jettySize=auto;html=1;exitX=0.5;exitY=1;exitDx=0;exitDy=0;entryX=0.5;entryY=0;entryDx=0;entryDy=0;" parent="1" source="15Ui1ueJbvAooOtmS-sP-4" target="15Ui1ueJbvAooOtmS-sP-13" edge="1">
          <mxGeometry relative="1" as="geometry" />
        </mxCell>
        <mxCell id="15Ui1ueJbvAooOtmS-sP-18" style="edgeStyle=orthogonalEdgeStyle;rounded=0;orthogonalLoop=1;jettySize=auto;html=1;exitX=0.5;exitY=1;exitDx=0;exitDy=0;entryX=0.5;entryY=0;entryDx=0;entryDy=0;" parent="1" source="15Ui1ueJbvAooOtmS-sP-4" target="15Ui1ueJbvAooOtmS-sP-14" edge="1">
          <mxGeometry relative="1" as="geometry" />
        </mxCell>
        <mxCell id="15Ui1ueJbvAooOtmS-sP-4" value="Jump" style="rounded=0;whiteSpace=wrap;html=1;" parent="1" vertex="1">
          <mxGeometry x="-140" y="160" width="190" height="40" as="geometry" />
        </mxCell>
        <mxCell id="15Ui1ueJbvAooOtmS-sP-11" style="edgeStyle=orthogonalEdgeStyle;rounded=0;orthogonalLoop=1;jettySize=auto;html=1;exitX=0.5;exitY=1;exitDx=0;exitDy=0;" parent="1" source="15Ui1ueJbvAooOtmS-sP-6" target="15Ui1ueJbvAooOtmS-sP-9" edge="1">
          <mxGeometry relative="1" as="geometry" />
        </mxCell>
        <mxCell id="15Ui1ueJbvAooOtmS-sP-12" style="edgeStyle=orthogonalEdgeStyle;rounded=0;orthogonalLoop=1;jettySize=auto;html=1;exitX=0.5;exitY=1;exitDx=0;exitDy=0;entryX=0.5;entryY=0;entryDx=0;entryDy=0;" parent="1" source="15Ui1ueJbvAooOtmS-sP-6" target="15Ui1ueJbvAooOtmS-sP-10" edge="1">
          <mxGeometry relative="1" as="geometry" />
        </mxCell>
        <mxCell id="15Ui1ueJbvAooOtmS-sP-6" value="Move Horizontally" style="rounded=0;whiteSpace=wrap;html=1;" parent="1" vertex="1">
          <mxGeometry x="436" y="160" width="190" height="40" as="geometry" />
        </mxCell>
        <mxCell id="15Ui1ueJbvAooOtmS-sP-8" style="edgeStyle=orthogonalEdgeStyle;rounded=0;orthogonalLoop=1;jettySize=auto;html=1;exitX=0.5;exitY=1;exitDx=0;exitDy=0;entryX=0.426;entryY=0.025;entryDx=0;entryDy=0;entryPerimeter=0;" parent="1" source="15Ui1ueJbvAooOtmS-sP-2" target="15Ui1ueJbvAooOtmS-sP-4" edge="1">
          <mxGeometry relative="1" as="geometry" />
        </mxCell>
        <mxCell id="15Ui1ueJbvAooOtmS-sP-92" style="edgeStyle=orthogonalEdgeStyle;rounded=0;orthogonalLoop=1;jettySize=auto;html=1;exitX=0.5;exitY=1;exitDx=0;exitDy=0;entryX=0.5;entryY=0;entryDx=0;entryDy=0;" parent="1" source="15Ui1ueJbvAooOtmS-sP-9" target="15Ui1ueJbvAooOtmS-sP-91" edge="1">
          <mxGeometry relative="1" as="geometry" />
        </mxCell>
        <mxCell id="15Ui1ueJbvAooOtmS-sP-9" value="Should Move" style="rounded=0;whiteSpace=wrap;html=1;" parent="1" vertex="1">
          <mxGeometry x="290" y="270" width="190" height="40" as="geometry" />
        </mxCell>
        <mxCell id="15Ui1ueJbvAooOtmS-sP-10" value="Apply Movement" style="rounded=0;whiteSpace=wrap;html=1;" parent="1" vertex="1">
          <mxGeometry x="576" y="270" width="190" height="40" as="geometry" />
        </mxCell>
        <mxCell id="15Ui1ueJbvAooOtmS-sP-98" style="edgeStyle=orthogonalEdgeStyle;rounded=0;orthogonalLoop=1;jettySize=auto;html=1;exitX=0.5;exitY=1;exitDx=0;exitDy=0;entryX=0.5;entryY=0;entryDx=0;entryDy=0;" parent="1" source="15Ui1ueJbvAooOtmS-sP-13" target="15Ui1ueJbvAooOtmS-sP-97" edge="1">
          <mxGeometry relative="1" as="geometry" />
        </mxCell>
        <mxCell id="15Ui1ueJbvAooOtmS-sP-13" value="Should jump" style="rounded=0;whiteSpace=wrap;html=1;" parent="1" vertex="1">
          <mxGeometry x="-370" y="290" width="190" height="40" as="geometry" />
        </mxCell>
        <mxCell id="15Ui1ueJbvAooOtmS-sP-14" value="Apply Jump" style="rounded=0;whiteSpace=wrap;html=1;" parent="1" vertex="1">
          <mxGeometry x="-84" y="290" width="190" height="40" as="geometry" />
        </mxCell>
        <mxCell id="15Ui1ueJbvAooOtmS-sP-15" value="Determine User Input" style="rounded=0;whiteSpace=wrap;html=1;" parent="1" vertex="1">
          <mxGeometry x="-500" y="460" width="190" height="40" as="geometry" />
        </mxCell>
        <mxCell id="15Ui1ueJbvAooOtmS-sP-16" value="Is Grounded" style="rounded=0;whiteSpace=wrap;html=1;" parent="1" vertex="1">
          <mxGeometry x="-214" y="460" width="190" height="40" as="geometry" />
        </mxCell>
        <mxCell id="15Ui1ueJbvAooOtmS-sP-19" style="edgeStyle=orthogonalEdgeStyle;rounded=0;orthogonalLoop=1;jettySize=auto;html=1;exitX=0.5;exitY=1;exitDx=0;exitDy=0;entryX=0.353;entryY=0.025;entryDx=0;entryDy=0;entryPerimeter=0;" parent="1" source="15Ui1ueJbvAooOtmS-sP-13" target="15Ui1ueJbvAooOtmS-sP-15" edge="1">
          <mxGeometry relative="1" as="geometry" />
        </mxCell>
        <mxCell id="15Ui1ueJbvAooOtmS-sP-20" style="edgeStyle=orthogonalEdgeStyle;rounded=0;orthogonalLoop=1;jettySize=auto;html=1;exitX=0.5;exitY=1;exitDx=0;exitDy=0;entryX=0.4;entryY=-0.05;entryDx=0;entryDy=0;entryPerimeter=0;" parent="1" source="15Ui1ueJbvAooOtmS-sP-13" target="15Ui1ueJbvAooOtmS-sP-16" edge="1">
          <mxGeometry relative="1" as="geometry" />
        </mxCell>
        <mxCell id="xDbRl0t0EhLevKHPDMfG-14" style="edgeStyle=orthogonalEdgeStyle;rounded=0;orthogonalLoop=1;jettySize=auto;html=1;exitX=0.5;exitY=1;exitDx=0;exitDy=0;entryX=0.5;entryY=0;entryDx=0;entryDy=0;" edge="1" parent="1" source="15Ui1ueJbvAooOtmS-sP-22" target="xDbRl0t0EhLevKHPDMfG-13">
          <mxGeometry relative="1" as="geometry" />
        </mxCell>
        <mxCell id="15Ui1ueJbvAooOtmS-sP-22" value="EnemyController" style="rounded=0;whiteSpace=wrap;html=1;" parent="1" vertex="1">
          <mxGeometry x="2060" y="-170" width="190" height="40" as="geometry" />
        </mxCell>
        <mxCell id="15Ui1ueJbvAooOtmS-sP-23" style="edgeStyle=orthogonalEdgeStyle;rounded=0;orthogonalLoop=1;jettySize=auto;html=1;exitX=0.5;exitY=1;exitDx=0;exitDy=0;entryX=0.5;entryY=0;entryDx=0;entryDy=0;" parent="1" source="15Ui1ueJbvAooOtmS-sP-25" target="15Ui1ueJbvAooOtmS-sP-32" edge="1">
          <mxGeometry relative="1" as="geometry" />
        </mxCell>
        <mxCell id="15Ui1ueJbvAooOtmS-sP-24" style="edgeStyle=orthogonalEdgeStyle;rounded=0;orthogonalLoop=1;jettySize=auto;html=1;exitX=0.5;exitY=1;exitDx=0;exitDy=0;entryX=0.5;entryY=0;entryDx=0;entryDy=0;" parent="1" source="15Ui1ueJbvAooOtmS-sP-25" target="15Ui1ueJbvAooOtmS-sP-33" edge="1">
          <mxGeometry relative="1" as="geometry" />
        </mxCell>
        <mxCell id="15Ui1ueJbvAooOtmS-sP-25" value="Enemy Behaviour" style="rounded=0;whiteSpace=wrap;html=1;" parent="1" vertex="1">
          <mxGeometry x="1684.8899999999999" y="120" width="190" height="40" as="geometry" />
        </mxCell>
        <mxCell id="15Ui1ueJbvAooOtmS-sP-29" style="edgeStyle=orthogonalEdgeStyle;rounded=0;orthogonalLoop=1;jettySize=auto;html=1;exitX=0.5;exitY=1;exitDx=0;exitDy=0;entryX=0.426;entryY=0.025;entryDx=0;entryDy=0;entryPerimeter=0;" parent="1" source="15Ui1ueJbvAooOtmS-sP-22" target="15Ui1ueJbvAooOtmS-sP-25" edge="1">
          <mxGeometry relative="1" as="geometry" />
        </mxCell>
        <mxCell id="15Ui1ueJbvAooOtmS-sP-32" value="Attack" style="rounded=0;whiteSpace=wrap;html=1;" parent="1" vertex="1">
          <mxGeometry x="1454.8899999999999" y="250" width="190" height="40" as="geometry" />
        </mxCell>
        <mxCell id="xDbRl0t0EhLevKHPDMfG-10" style="edgeStyle=orthogonalEdgeStyle;rounded=0;orthogonalLoop=1;jettySize=auto;html=1;exitX=0.5;exitY=1;exitDx=0;exitDy=0;entryX=0.5;entryY=0;entryDx=0;entryDy=0;" edge="1" parent="1" source="15Ui1ueJbvAooOtmS-sP-33" target="xDbRl0t0EhLevKHPDMfG-8">
          <mxGeometry relative="1" as="geometry" />
        </mxCell>
        <mxCell id="xDbRl0t0EhLevKHPDMfG-12" style="edgeStyle=orthogonalEdgeStyle;rounded=0;orthogonalLoop=1;jettySize=auto;html=1;exitX=0.5;exitY=1;exitDx=0;exitDy=0;entryX=0.5;entryY=0;entryDx=0;entryDy=0;" edge="1" parent="1" source="15Ui1ueJbvAooOtmS-sP-33" target="xDbRl0t0EhLevKHPDMfG-11">
          <mxGeometry relative="1" as="geometry" />
        </mxCell>
        <mxCell id="xDbRl0t0EhLevKHPDMfG-18" style="edgeStyle=orthogonalEdgeStyle;rounded=0;orthogonalLoop=1;jettySize=auto;html=1;exitX=0.5;exitY=1;exitDx=0;exitDy=0;" edge="1" parent="1" source="15Ui1ueJbvAooOtmS-sP-33" target="xDbRl0t0EhLevKHPDMfG-17">
          <mxGeometry relative="1" as="geometry" />
        </mxCell>
        <mxCell id="15Ui1ueJbvAooOtmS-sP-33" value="Movement" style="rounded=0;whiteSpace=wrap;html=1;" parent="1" vertex="1">
          <mxGeometry x="1894.8899999999999" y="250" width="190" height="40" as="geometry" />
        </mxCell>
        <mxCell id="xDbRl0t0EhLevKHPDMfG-7" style="edgeStyle=orthogonalEdgeStyle;rounded=0;orthogonalLoop=1;jettySize=auto;html=1;exitX=0.5;exitY=1;exitDx=0;exitDy=0;" edge="1" parent="1" source="15Ui1ueJbvAooOtmS-sP-34" target="xDbRl0t0EhLevKHPDMfG-5">
          <mxGeometry relative="1" as="geometry" />
        </mxCell>
        <mxCell id="xDbRl0t0EhLevKHPDMfG-16" style="edgeStyle=orthogonalEdgeStyle;rounded=0;orthogonalLoop=1;jettySize=auto;html=1;exitX=0.5;exitY=1;exitDx=0;exitDy=0;entryX=0.5;entryY=0;entryDx=0;entryDy=0;" edge="1" parent="1" source="15Ui1ueJbvAooOtmS-sP-34" target="xDbRl0t0EhLevKHPDMfG-4">
          <mxGeometry relative="1" as="geometry" />
        </mxCell>
        <mxCell id="15Ui1ueJbvAooOtmS-sP-34" value="Should Attack" style="rounded=0;whiteSpace=wrap;html=1;" parent="1" vertex="1">
          <mxGeometry x="1324.8899999999999" y="420" width="190" height="40" as="geometry" />
        </mxCell>
        <mxCell id="15Ui1ueJbvAooOtmS-sP-35" value="apply Attack" style="rounded=0;whiteSpace=wrap;html=1;" parent="1" vertex="1">
          <mxGeometry x="1610.8899999999999" y="420" width="190" height="40" as="geometry" />
        </mxCell>
        <mxCell id="15Ui1ueJbvAooOtmS-sP-36" style="edgeStyle=orthogonalEdgeStyle;rounded=0;orthogonalLoop=1;jettySize=auto;html=1;exitX=0.5;exitY=1;exitDx=0;exitDy=0;entryX=0.353;entryY=0.025;entryDx=0;entryDy=0;entryPerimeter=0;" parent="1" source="15Ui1ueJbvAooOtmS-sP-32" target="15Ui1ueJbvAooOtmS-sP-34" edge="1">
          <mxGeometry relative="1" as="geometry" />
        </mxCell>
        <mxCell id="15Ui1ueJbvAooOtmS-sP-37" style="edgeStyle=orthogonalEdgeStyle;rounded=0;orthogonalLoop=1;jettySize=auto;html=1;exitX=0.5;exitY=1;exitDx=0;exitDy=0;entryX=0.4;entryY=-0.05;entryDx=0;entryDy=0;entryPerimeter=0;" parent="1" source="15Ui1ueJbvAooOtmS-sP-32" target="15Ui1ueJbvAooOtmS-sP-35" edge="1">
          <mxGeometry relative="1" as="geometry" />
        </mxCell>
        <mxCell id="15Ui1ueJbvAooOtmS-sP-64" style="edgeStyle=orthogonalEdgeStyle;rounded=0;orthogonalLoop=1;jettySize=auto;html=1;exitX=0.5;exitY=1;exitDx=0;exitDy=0;entryX=0.5;entryY=0;entryDx=0;entryDy=0;" parent="1" source="15Ui1ueJbvAooOtmS-sP-82" target="15Ui1ueJbvAooOtmS-sP-63" edge="1">
          <mxGeometry relative="1" as="geometry" />
        </mxCell>
        <mxCell id="15Ui1ueJbvAooOtmS-sP-65" style="edgeStyle=orthogonalEdgeStyle;rounded=0;orthogonalLoop=1;jettySize=auto;html=1;exitX=0.5;exitY=1;exitDx=0;exitDy=0;" parent="1" source="15Ui1ueJbvAooOtmS-sP-45" target="15Ui1ueJbvAooOtmS-sP-60" edge="1">
          <mxGeometry relative="1" as="geometry" />
        </mxCell>
        <mxCell id="15Ui1ueJbvAooOtmS-sP-86" style="edgeStyle=orthogonalEdgeStyle;rounded=0;orthogonalLoop=1;jettySize=auto;html=1;exitX=0.5;exitY=1;exitDx=0;exitDy=0;entryX=0.5;entryY=0;entryDx=0;entryDy=0;" parent="1" source="15Ui1ueJbvAooOtmS-sP-45" target="15Ui1ueJbvAooOtmS-sP-85" edge="1">
          <mxGeometry relative="1" as="geometry" />
        </mxCell>
        <mxCell id="15Ui1ueJbvAooOtmS-sP-45" value="Attack" style="rounded=0;whiteSpace=wrap;html=1;" parent="1" vertex="1">
          <mxGeometry x="-1080" y="160" width="190" height="40" as="geometry" />
        </mxCell>
        <mxCell id="15Ui1ueJbvAooOtmS-sP-60" value="Attack Type" style="rounded=0;whiteSpace=wrap;html=1;" parent="1" vertex="1">
          <mxGeometry x="-1030" y="280" width="190" height="40" as="geometry" />
        </mxCell>
        <mxCell id="15Ui1ueJbvAooOtmS-sP-63" value="Determine User Input" style="rounded=0;whiteSpace=wrap;html=1;" parent="1" vertex="1">
          <mxGeometry x="-1210" y="480" width="190" height="40" as="geometry" />
        </mxCell>
        <mxCell id="15Ui1ueJbvAooOtmS-sP-67" style="edgeStyle=orthogonalEdgeStyle;rounded=0;orthogonalLoop=1;jettySize=auto;html=1;exitX=0.5;exitY=1;exitDx=0;exitDy=0;entryX=0.5;entryY=0;entryDx=0;entryDy=0;" parent="1" source="15Ui1ueJbvAooOtmS-sP-82" target="15Ui1ueJbvAooOtmS-sP-68" edge="1">
          <mxGeometry relative="1" as="geometry">
            <mxPoint x="-1415" y="155" as="sourcePoint" />
          </mxGeometry>
        </mxCell>
        <mxCell id="15Ui1ueJbvAooOtmS-sP-68" value="Can Attack&amp;nbsp;" style="rounded=0;whiteSpace=wrap;html=1;" parent="1" vertex="1">
          <mxGeometry x="-1450" y="480" width="190" height="40" as="geometry" />
        </mxCell>
        <mxCell id="xDbRl0t0EhLevKHPDMfG-3" style="edgeStyle=orthogonalEdgeStyle;rounded=0;orthogonalLoop=1;jettySize=auto;html=1;exitX=0.5;exitY=1;exitDx=0;exitDy=0;entryX=0.5;entryY=0;entryDx=0;entryDy=0;" edge="1" parent="1" source="15Ui1ueJbvAooOtmS-sP-82" target="xDbRl0t0EhLevKHPDMfG-2">
          <mxGeometry relative="1" as="geometry" />
        </mxCell>
        <mxCell id="15Ui1ueJbvAooOtmS-sP-82" value="Should Attack" style="rounded=0;whiteSpace=wrap;html=1;" parent="1" vertex="1">
          <mxGeometry x="-1330" y="280" width="190" height="40" as="geometry" />
        </mxCell>
        <mxCell id="15Ui1ueJbvAooOtmS-sP-84" style="edgeStyle=orthogonalEdgeStyle;rounded=0;orthogonalLoop=1;jettySize=auto;html=1;exitX=0.5;exitY=1;exitDx=0;exitDy=0;entryX=0.5;entryY=0;entryDx=0;entryDy=0;" parent="1" source="15Ui1ueJbvAooOtmS-sP-45" target="15Ui1ueJbvAooOtmS-sP-82" edge="1">
          <mxGeometry relative="1" as="geometry" />
        </mxCell>
        <mxCell id="15Ui1ueJbvAooOtmS-sP-85" value="Apply Attack" style="rounded=0;whiteSpace=wrap;html=1;" parent="1" vertex="1">
          <mxGeometry x="-790" y="280" width="190" height="40" as="geometry" />
        </mxCell>
        <mxCell id="15Ui1ueJbvAooOtmS-sP-91" value="Determine input Direction" style="rounded=0;whiteSpace=wrap;html=1;" parent="1" vertex="1">
          <mxGeometry x="150" y="360" width="190" height="40" as="geometry" />
        </mxCell>
        <mxCell id="15Ui1ueJbvAooOtmS-sP-93" value="Can Move" style="rounded=0;whiteSpace=wrap;html=1;" parent="1" vertex="1">
          <mxGeometry x="414" y="360" width="190" height="40" as="geometry" />
        </mxCell>
        <mxCell id="15Ui1ueJbvAooOtmS-sP-94" style="edgeStyle=orthogonalEdgeStyle;rounded=0;orthogonalLoop=1;jettySize=auto;html=1;exitX=0.5;exitY=1;exitDx=0;exitDy=0;entryX=0.507;entryY=-0.086;entryDx=0;entryDy=0;entryPerimeter=0;" parent="1" source="15Ui1ueJbvAooOtmS-sP-9" target="15Ui1ueJbvAooOtmS-sP-93" edge="1">
          <mxGeometry relative="1" as="geometry" />
        </mxCell>
        <mxCell id="15Ui1ueJbvAooOtmS-sP-96" style="edgeStyle=orthogonalEdgeStyle;rounded=0;orthogonalLoop=1;jettySize=auto;html=1;exitX=0;exitY=1;exitDx=0;exitDy=0;entryX=0;entryY=0.75;entryDx=0;entryDy=0;" parent="1" source="15Ui1ueJbvAooOtmS-sP-16" target="15Ui1ueJbvAooOtmS-sP-16" edge="1">
          <mxGeometry relative="1" as="geometry" />
        </mxCell>
        <mxCell id="15Ui1ueJbvAooOtmS-sP-97" value="Can Attack" style="rounded=0;whiteSpace=wrap;html=1;" parent="1" vertex="1">
          <mxGeometry x="-360" y="545" width="190" height="40" as="geometry" />
        </mxCell>
        <mxCell id="xDbRl0t0EhLevKHPDMfG-2" value="is Grounded" style="rounded=0;whiteSpace=wrap;html=1;" vertex="1" parent="1">
          <mxGeometry x="-1670" y="480" width="190" height="40" as="geometry" />
        </mxCell>
        <mxCell id="xDbRl0t0EhLevKHPDMfG-4" value="Can Attack&amp;nbsp;" style="rounded=0;whiteSpace=wrap;html=1;" vertex="1" parent="1">
          <mxGeometry x="1170" y="525" width="190" height="40" as="geometry" />
        </mxCell>
        <mxCell id="xDbRl0t0EhLevKHPDMfG-5" value="Player In Attack Range" style="rounded=0;whiteSpace=wrap;html=1;" vertex="1" parent="1">
          <mxGeometry x="1424.8899999999999" y="525" width="190" height="40" as="geometry" />
        </mxCell>
        <mxCell id="xDbRl0t0EhLevKHPDMfG-8" value="Apply Movement&amp;nbsp;" style="rounded=0;whiteSpace=wrap;html=1;" vertex="1" parent="1">
          <mxGeometry x="2220" y="340" width="190" height="40" as="geometry" />
        </mxCell>
        <mxCell id="xDbRl0t0EhLevKHPDMfG-11" value="Can Move" style="rounded=0;whiteSpace=wrap;html=1;" vertex="1" parent="1">
          <mxGeometry x="1784.8899999999999" y="340" width="190" height="40" as="geometry" />
        </mxCell>
        <mxCell id="xDbRl0t0EhLevKHPDMfG-13" value="Enemy Type" style="rounded=0;whiteSpace=wrap;html=1;" vertex="1" parent="1">
          <mxGeometry x="2390" y="120" width="190" height="40" as="geometry" />
        </mxCell>
        <mxCell id="xDbRl0t0EhLevKHPDMfG-17" value="Player ii Following Range" style="rounded=0;whiteSpace=wrap;html=1;" vertex="1" parent="1">
          <mxGeometry x="2000" y="340" width="190" height="40" as="geometry" />
        </mxCell>
      </root>
    </mxGraphModel>
  </diagram>
</mxfile>
